<svg xmlns="http://www.w3.org/2000/svg" xmlns:xlink="http://www.w3.org/1999/xlink" width="1280.121" height="1011.721" viewBox="0 0 1280.121 1011.721"><defs><style>.a,.i{fill:#da127d;}.a,.f{opacity:0.1;}.b{fill:#ffdf9c;}.c{fill:url(#a);}.d{fill:#ffcdd3;}.e{opacity:0.05;}.g{fill:#dce6f2;}.h{fill:#ff8aa1;}.j,.r{fill:#fff;}.j,.t{opacity:0.2;}.k,.l,.o,.p,.q,.s{fill:none;stroke-miterlimit:10;}.k,.l{stroke:#535461;}.l,.o,.p,.q{stroke-width:2px;}.m{fill:#fc6681;}.n{fill:#ffd037;}.o,.s{stroke:#fff;}.p{stroke:#fc6681;}.q{stroke:#ffd037;}.r{opacity:0.4;}.t{fill:#f5f5f5;}</style><linearGradient id="a" x1="-0.644" y1="1" x2="-0.644" gradientUnits="objectBoundingBox"><stop offset="0" stop-color="gray" stop-opacity="0.251"/><stop offset="0.54" stop-color="gray" stop-opacity="0.122"/><stop offset="1" stop-color="gray" stop-opacity="0.102"/></linearGradient></defs><g transform="translate(0 0)"><path class="a" d="M148.537,547.528c36.146,45.961,22.106,113.107-.863,166.872-7.69,18-16.392,37.055-13.143,56.355,3.964,23.6,24.991,40.894,47.165,49.982,40.326,16.676,88.6,12.7,125.648-10.349,32.023-19.924,54.958-52.322,87.526-71.338,54.526-31.807,123.888-19.8,183.071,2.113,41.871,15.506,87.651,35.68,129.26,19.47,29.274-11.36,49.516-39.156,60.547-68.578,5.328-14.211,9.19-29.535,19.311-40.895,6.043-6.691,13.927-11.45,22.015-15.449,73.837-36.589,166.986-17.039,238.642-57.57,48.449-27.3,79.483-78.995,93.115-132.9s12.155-110.461,8.679-165.929c-2.477-39.452-6.918-81.562-32.125-112.017-26.661-32.2-72.429-44.189-113.789-38.066s-78.858,27.945-111.835,53.64C850.536,214.988,812.311,254.985,761.692,268c-34.465,8.86-70.725,4.01-106.28,2.34-59.433-2.806-118.878,3.408-177.982,10.224-56.582,6.543-113.6,13.745-167.474,32.148-38.145,13.029-68.725,36.669-104.747,53.186-23.48,10.769-49.085,13.745-71.3,27.456-27.388,16.892-52.481,46.279-45.438,80.653C95.1,506.747,129.35,523.139,148.537,547.528Z" transform="translate(70.227 73.314)"/><path class="a" d="M1267.1,606.241S1059.222,551.715,790,690.3,226.565,581.25,232.245,543.764s-195.385,0-195.385,0V878.871H1267.1Z" transform="translate(12.271 127.617)"/><circle class="b" cx="56.503" cy="56.503" r="56.503" transform="translate(350.523 0)"/><path class="c" d="M701.044,321.161,690.911,350l7.793,48.483s11.78,38.623,10.6,57.434,0,44.541,0,44.541,28.263,51.572,4.714,72.7c-5.475,4.9-10.053,3.919-13.859-.477a121.507,121.507,0,0,1-11.814,5.68l19.766,76.768,18.845,37.487S767.02,726.7,782.3,798.172c0,0,15.278,47.631,24.991,61.853a19.472,19.472,0,0,0,1.443,1.92,80.2,80.2,0,0,0,4.169-7.509l17.732,46.881s-35.328,19.925-60.058,28.126-52.992-1.136-61.239-11.723,16.483-22.265,34.158-29.308c8.565-3.408,13.245-11.507,15.813-18.948.227-2.272.409-4.873.489-7.656.375-13.3-1.67-31.262-12.768-44.893-20.016-24.616-50.641-85.56-50.641-85.56s-30.671-32.818-37.691-45.711L616.29,614.852c-23.526,26.661-47.1,89.536-47.1,89.536l-9.417,57.434s-30.671,82.05-40.042,90.252c-.261.227-.523.488-.784.761l-.239.261q-.284.307-.568.648l-.227.284c-.25.307-.489.636-.739.977l-.17.261q-.284.409-.568.852l-.261.42-.5.841-.227.4q-.341.6-.67,1.238l-.239.454-.466.931-.261.545-.477,1.022-.193.432q-.318.7-.614,1.431l-.227.557-.42,1.034-.227.579-.522,1.352-.125.341-.545,1.488-.193.557-.409,1.136-.171.5-.545,1.647-.068.227-.466,1.465-.148.488-.443,1.443-.1.341-.488,1.647-.091.329-.375,1.306-.136.477-.341,1.238-.1.352-.375,1.408-.181.682-.171.682-.216.841-.057.227c-.273,1.079-.523,2.1-.75,3.033l-.284,1.136-.125.557v.148a43.683,43.683,0,0,0,4.919-3.783,133.95,133.95,0,0,0,0,23.446c1.136,11.723-10.6,28.126-10.6,28.126s-106-25.786-111.881-43.371,18.846-15.233,25.911-12.893,42.394-4.691,47.108-12.893a22.723,22.723,0,0,1,3.169-4.192,6.7,6.7,0,0,1,8.179-1.352l.261-.3.307-.375.2-.261.375-.489h0c.261-.352.523-.727.784-1.136l.284-.431q.7-1.136,1.432-2.42l.091-.17c7.509-13.711,15.6-41.7,17.46-48.358v-.148l.148-.545v-.352l.079-.273v-.136l27.081-87.912c-8.247-31.648,0-46.881,0-46.881l15.313-71.5,8.645-32.375a4.375,4.375,0,0,1-.4-.443c7.043-19.7,12.564-61.478,16.006-93.762q.329-3.147.636-6.146l-26.07,12.007s-35.328,53.913-57.707,28.126,44.757-48.051,44.757-48.051l42.3-28.069.091-1.238,4.714-35.215s12.95-42.189,7.066-70.327c-5.01-23.957,11.36-32.613,16.29-34.658a15.753,15.753,0,0,1,2.4-.7c6.464-1.522,13.632-8.1,19.777-15.142a77.556,77.556,0,0,1,18.482-15.369,18.051,18.051,0,0,1-7.7-11.36c-.977-5.407.875-10.78,2.533-16.085a143.609,143.609,0,0,0-8.338-17.039h-.193q-.738-1.249-1.431-2.374a51.118,51.118,0,0,1-45.2-50.618,50.563,50.563,0,0,1,6.35-24.594c-5.282-1.829-10.337-4.146-8.429-9.565,1.295-3.669,4.737-6.055,7.418-8.872,7.1-7.463,9.258-18.664,16.676-25.809a25.367,25.367,0,0,1,7.339-4.862c7.543-4.271,17.187-4.816,25.9-3.226,10.78,1.977,20.834,6.725,31.364,9.781,9.258,2.681,18.948,4.067,27.82,7.849,15.142,6.441,26.8,19.538,33.783,34.374,6.18,13.109,9.087,27.638,15.8,40.463s19.164,24.378,33.7,23.855c3.76-.125,7.656-1.034,11.178.273a13.633,13.633,0,0,1,6.5,5.93c7.952,13.007,2.851,30.523,9.2,44.382,4.725,10.315,14.9,16.835,23.241,24.548s15.506,19.164,11.564,29.807c-2.022,5.453-6.656,9.428-12.064,11.825a30.666,30.666,0,0,1-8.8,3.238c-7.952,1.6-16.085.636-24.139.068-21.776-1.534-45.6-.716-62.887-13.984-7.122-5.464-12.609-13.007-18.312-20.118a150.456,150.456,0,0,1-3.669,32.182ZM669.68,394.873c-1.772,2.919-3.567,5.827-5.43,8.69-17.312,26.581,6.168,62.943,6.168,62.943A63.616,63.616,0,0,1,684.05,481.99c-.307-11.189-1.613-23.969-5.384-33.068-5.862-14.165-8.2-40.236-8.985-54.083Z" transform="translate(50.995 67.628)"/><path class="d" d="M503.343,313l9.2,57.264s11.508,37.782,10.349,56.094,0,43.507,0,43.507,27.6,50.368,4.6,70.975-29.91-65.249-29.91-65.249,3.408-36.635-4.6-56.094-9.2-61.819-9.2-61.819Z" transform="translate(235.042 98.508)"/><path class="e" d="M503.343,313l9.2,57.264s11.508,37.782,10.349,56.094,0,43.507,0,43.507,27.6,50.368,4.6,70.975-29.91-65.249-29.91-65.249,3.408-36.635-4.6-56.094-9.2-61.819-9.2-61.819Z" transform="translate(235.042 98.508)"/><path class="d" d="M623.436,486.29l-15.9,59.6-14.949,69.827s-8.054,14.881,0,45.791l-26.456,85.855s-14.949,54.946-24.15,56.094,9.2,43.507,9.2,43.507l25.309-14.88s6.907-34.34,16.108-42.36,39.111-88.15,39.111-88.15l9.2-56.094s28.751-76.7,54.06-95.023,33.363-48.085,33.363-48.085Z" transform="translate(-19.821 122.068)"/><path class="e" d="M728.406,502.394s-8.054,29.762-33.363,48.085-54.06,95.023-54.06,95.023l-9.2,56.094s-29.91,80.13-39.111,88.15C585.922,795.63,580.4,815.7,577.9,825.96c-.9,3.726-1.385,6.145-1.385,6.145l-25.31,14.881s-18.4-42.359-9.2-43.507c1.431-.171,2.988-1.647,4.624-4.01,8.86-12.848,19.527-52.084,19.527-52.084l26.457-85.856c-8.054-30.909,0-45.79,0-45.79l14.949-69.827,15.9-59.592Z" transform="translate(-19.93 122.073)"/><path class="d" d="M628.333,797.428l-9.2,21.754-41.406-4.544a95.1,95.1,0,0,0,2.113-17.971c.363-13-1.636-30.535-12.5-43.848-19.527-24.105-49.4-83.607-49.4-83.607s-29.91-32.057-36.8-44.643l-57.582-96.125,1.795-8.622L409.82,505.51H506.41l23,89.286,18.4,36.635s39.111,33.2,54.06,103.031c0,0,14.915,46.574,24.423,60.41A16.689,16.689,0,0,0,628.333,797.428Z" transform="translate(227.374 124.682)"/><path class="f" d="M710.343,788.46c-.9,3.726-1.386,6.146-1.386,6.146l-25.309,14.881s-18.4-42.36-9.2-43.507c1.431-.171,2.988-1.647,4.623-4.01a6.441,6.441,0,0,1,2.942,7.134,17.7,17.7,0,0,1-1.818,4.884c-3.408,5.68,11.507,14.881,11.507,14.881C696.745,795.333,704.924,791.936,710.343,788.46Z" transform="translate(-152.313 159.549)"/><path class="g" d="M754.571,771.261c1.579-6.6-6.713-11.03-11.359-6.077a22.14,22.14,0,0,0-3.09,4.089c-4.6,8.009-39.111,14.881-46.006,12.6s-31.057-4.544-25.309,12.6,109.257,42.359,109.257,42.359,11.518-16.039,10.382-27.479a130.868,130.868,0,0,1,0-22.9s-16.108,14.881-24.15,4.544c0,0-14.949-9.156-11.507-14.881A17.679,17.679,0,0,0,754.571,771.261Z" transform="translate(-226.02 159.698)"/><path class="f" d="M460.427,762.956l-9.2,21.753-41.406-4.544a95.072,95.072,0,0,0,2.113-17.971,5.68,5.68,0,0,1,9.235-1.317c2.136,2.272,4.305,4.7,5.9,6.7,4.6,5.68,19.55,2.272,19.55,2.272,3.873,1.283,8.474-4.283,11.768-9.417A16.7,16.7,0,0,0,460.427,762.956Z" transform="translate(395.28 159.154)"/><path class="g" d="M452.867,763.62a5.679,5.679,0,0,0-9.633,2.374c-2.09,8.145-6.68,18.652-16.687,22.639-17.255,6.816-41.406,18.312-33.363,28.615s35.669,19.481,59.831,11.45,58.661-27.479,58.661-27.479L494.42,755.43s-9.2,19.459-16.108,17.176c0,0-14.949,3.408-19.55-2.272C457.16,768.323,455,765.915,452.867,763.62Z" transform="translate(364.74 158.66)"/><path class="d" d="M514.11,199.545s27.6,37.782,20.708,64.113,55.207-17.176,55.207-17.176-32.2-28.615-26.456-75.553Z" transform="translate(147.212 79.193)"/><path class="h" d="M656.258,549.71c-46.006,27.479-101.225,16.029-101.225,16.029l1.136-8.009-2.4.227c-43.973,3.874-53.969-9.383-53.969-9.383,6.884-19.243,12.268-60.047,15.631-91.581.488-4.544.92-8.872,1.317-12.938.909-9.19,1.591-16.937,2.022-22.163.375-4.6.579-7.259.579-7.259l4.623-34.351s12.655-41.212,6.907-68.691c-4.9-23.4,11.064-31.807,15.9-33.84a15.392,15.392,0,0,1,2.34-.693c6.3-1.488,13.336-7.952,19.311-14.767A77.56,77.56,0,0,1,600.7,240.378c5.782-2.09,10.7-4.317,10.7-4.317,8.054-9.156,29.91-3.408,29.91-3.408,26.457,17.176,12.655,73.269,12.655,73.269l-11,31.273c-6.134,17.414-14.858,33.715-24.991,49.2-16.914,25.968,6.032,61.478,6.032,61.478C659.711,476.441,656.258,549.71,656.258,549.71Z" transform="translate(95.929 87.342)"/><path class="e" d="M645.613,470.964l-4.123,61.478c-43.973,3.874-53.969-9.383-53.969-9.383,6.884-19.243,12.268-60.047,15.631-91.581.489-4.544.92-8.872,1.318-12.939Z" transform="translate(8.234 112.857)"/><path class="f" d="M628.883,328.777s-20.709,38.918-27.6,56.094-6.907,11.45-10.349,17.176-40.258,30.909-40.258,30.909L513.39,450.132c1.579-14.767,2.715-27.558,3.351-35.1l35.078-23.287s24.15-14.881,25.309-34.34,16.108-54.946,16.108-54.946,29.91-32.057,42.564-17.176S628.883,328.777,628.883,328.777Z" transform="translate(97.995 94.204)"/><path class="d" d="M678.908,297.4S663.959,332.89,662.8,352.349s-25.309,34.34-25.309,34.34l-75.916,50.368S496.007,458.811,517.863,484s56.378-27.422,56.378-27.422l62.114-28.615s36.805-25.184,40.258-30.909,3.408,0,10.349-17.176,27.6-56.094,27.6-56.094,19.55-28.615,6.906-43.507S678.908,297.4,678.908,297.4Z" transform="translate(12.312 93.522)"/><path class="f" d="M505.09,314.571s23-17.176,27.6-22.9c2.033-2.522,5.18-2.158,8.065-.943a36.352,36.352,0,0,0,17.039,2.806c5.032-.432,9.917-.148,9.349,2.715-1.136,5.68,3.408-29.762,3.408-29.762l-19.55-6.816L525.7,273.4Z" transform="translate(176.929 91.258)"/><path class="h" d="M505.09,312.571s23-17.176,27.6-22.9c2.033-2.522,5.18-2.158,8.065-.943a36.348,36.348,0,0,0,17.039,2.806c5.032-.432,9.917-.147,9.349,2.715-1.136,5.68,3.408-29.762,3.408-29.762l-19.55-6.816L525.7,271.4Z" transform="translate(176.929 90.986)"/><path class="f" d="M587.52,308.205a28.4,28.4,0,0,0,25.991-1.715" transform="translate(40.337 97.623)"/><path class="f" d="M577.247,173.669c-.863-6.816,7.656,7.372,8.622-.568l-49.46,28.615s2.829,3.874,6.43,9.974a50.731,50.731,0,0,0,5.68.329C563.389,212.019,568.1,183.938,577.247,173.669Z" transform="translate(126.036 79.305)"/><ellipse class="d" cx="50.039" cy="49.8" rx="50.039" ry="49.8" transform="translate(623.358 189.44)"/><path class="f" d="M422.5,171.17c.375,3.124.307,6.43,1.795,9.2,2.09,3.885,6.6,5.68,10.371,7.952,15.29,9.372,19.823,30.455,14.949,47.653-1.727,6.089-4.442,12.257-3.317,18.482,1.943,10.689,14.177,16.233,25.048,17.187s22.265-.806,32.432,3.147c17.039,6.634,24.6,26.57,39.122,37.714,16.892,12.961,40.156,12.155,61.421,13.632,7.861.556,15.9,1.5,23.571-.068s15.347-6.2,18.084-13.563c3.851-10.383-3.158-21.651-11.359-29.194s-18.084-13.9-22.719-23.98c-6.2-13.541-1.136-30.671-8.985-43.348a13.325,13.325,0,0,0-6.339-5.793c-3.408-1.284-7.247-.4-10.916-.273-14.211.488-26.32-10.792-32.943-23.321s-9.406-26.706-15.438-39.52c-6.816-14.495-18.175-27.263-32.943-33.579-8.667-3.68-18.175-5.044-27.172-7.668-10.28-2.976-20.106-7.622-30.671-9.553s-22.469-.659-30.171,6.748c-7.247,6.975-9.36,17.914-16.29,25.207-2.624,2.76-5.986,5.089-7.247,8.667-2.988,8.474,11.507,9.19,16.335,12.586A31.614,31.614,0,0,1,422.5,171.17Z" transform="translate(228.448 68.933)"/><path class="i" d="M420.5,170.166c.375,3.124.307,6.43,1.795,9.2,2.09,3.885,6.6,5.68,10.371,7.952,15.29,9.372,19.822,30.455,14.949,47.653-1.727,6.089-4.442,12.257-3.317,18.482,1.942,10.689,14.177,16.233,25.048,17.187s22.265-.807,32.431,3.147c17.04,6.634,24.605,26.57,39.123,37.714,16.892,12.961,40.156,12.155,61.421,13.632,7.861.557,15.9,1.5,23.571-.068s15.324-6.214,18.05-13.529c3.851-10.383-3.158-21.651-11.359-29.194s-18.084-13.9-22.719-23.98c-6.2-13.541-1.136-30.671-8.985-43.348a13.325,13.325,0,0,0-6.339-5.793c-3.408-1.284-7.247-.4-10.917-.273-14.211.488-26.32-10.792-32.943-23.321s-9.406-26.706-15.438-39.52c-6.816-14.495-18.175-27.263-32.943-33.579-8.667-3.68-18.175-5.044-27.172-7.668-10.28-2.976-20.107-7.622-30.671-9.553s-22.469-.659-30.171,6.748c-7.247,6.975-9.36,17.914-16.29,25.207-2.624,2.76-5.987,5.089-7.247,8.667-2.988,8.474,11.507,9.19,16.335,12.586A31.614,31.614,0,0,1,420.5,170.166Z" transform="translate(232.805 68.802)"/><path class="i" d="M225.652,855.512s37.487-67.021-9.088-120.412-101.1-23.855-101.1-23.855S47.307,743.052,63.21,819.161c0,0,9.088,38.623,36.351,36.351Z" transform="translate(1012.259 151.545)"/><path class="j" d="M225.652,855.512s37.487-67.021-9.088-120.412-101.1-23.855-101.1-23.855S47.307,743.052,63.21,819.161c0,0,9.088,38.623,36.351,36.351Z" transform="translate(1012.259 151.545)"/><line class="k" x1="41.088" y1="125.046" transform="translate(1137.947 882.102)"/><path class="k" d="M125.36,748.62s21.152-9.951,42.383-4.407c0,0,11.007-27.4,36-31.943" transform="translate(975.1 152.792)"/><path class="k" d="M104.36,788.4s35.964-25.991,62.285-18.107c0,0,29.728-35.283,50.175-33.011" transform="translate(985.877 156.179)"/><path class="k" d="M86.36,830.2s30.739-22.242,68.759-20.754c0,0,28.933-34.885,56.2-37.157" transform="translate(1011.828 160.953)"/><path class="k" d="M64.1,840.706a80.671,80.671,0,0,1,14.688-5.259s23.7-30.807,71.122-20.777" transform="translate(1098.52 166.441)"/><path class="l" d="M309.71,878.925s62.478-101.872,45.8-193.783c-7.009-38.623-2.033-78.381,15.494-113.494a304.547,304.547,0,0,1,29.433-47.278" transform="translate(568.989 127.246)"/><path class="i" d="M330.028,533.787C334.322,547.168,371,578.18,371,578.18s11.768-46.574,7.474-59.945a25.443,25.443,0,1,0-48.452,15.552Z" transform="translate(568.323 124.008)"/><path class="i" d="M358.909,648.573c10.462,9.383,57.775,17.642,57.775,17.642s-13.348-46.143-23.855-55.526a25.443,25.443,0,1,0-33.968,37.888Z" transform="translate(506.522 138.097)"/><path class="i" d="M361.845,738.936c8.724,11.008,53.969,27.149,53.969,27.149s-5.362-47.71-14.086-58.751a25.444,25.444,0,1,0-39.885,31.6Z" transform="translate(500.644 150.81)"/><path class="i" d="M340.077,589.178c-12.28,6.815-60.206,4.362-60.206,4.362s23.264-42.031,35.544-48.846a25.444,25.444,0,1,1,24.709,44.487Z" transform="translate(650.105 129.573)"/><path class="i" d="M337.346,695.6c-13.756,2.84-58.8-13.859-58.8-13.859s34.738-33.136,48.528-35.976A25.445,25.445,0,0,1,337.3,695.6Z" transform="translate(647.86 143.697)"/><path class="i" d="M360.28,798.031c-13.086,5.123-60.3-3.726-60.3-3.726s28.672-38.532,41.758-43.655a25.442,25.442,0,1,1,18.541,47.387Z" transform="translate(604.013 157.771)"/><path class="m" d="M330.028,533.787C334.322,547.168,371,578.18,371,578.18s11.768-46.574,7.474-59.945a25.443,25.443,0,1,0-48.452,15.552Z" transform="translate(568.323 124.008)"/><path class="m" d="M358.909,648.573c10.462,9.383,57.775,17.642,57.775,17.642s-13.348-46.143-23.855-55.526a25.443,25.443,0,1,0-33.968,37.888Z" transform="translate(506.522 138.097)"/><path class="m" d="M361.845,738.936c8.724,11.008,53.969,27.149,53.969,27.149s-5.362-47.71-14.086-58.751a25.444,25.444,0,1,0-39.885,31.6Z" transform="translate(500.644 150.81)"/><path class="m" d="M340.077,589.178c-12.28,6.815-60.206,4.362-60.206,4.362s23.264-42.031,35.544-48.846a25.444,25.444,0,1,1,24.709,44.487Z" transform="translate(650.105 129.573)"/><path class="m" d="M337.346,695.6c-13.756,2.84-58.8-13.859-58.8-13.859s34.738-33.136,48.528-35.976A25.445,25.445,0,0,1,337.3,695.6Z" transform="translate(647.86 143.697)"/><path class="m" d="M360.28,798.031c-13.086,5.123-60.3-3.726-60.3-3.726s28.672-38.532,41.758-43.655a25.442,25.442,0,1,1,18.541,47.387Z" transform="translate(604.013 157.771)"/><path class="l" d="M226.245,873.117s-84.606-133-94.83-189.8S101.88,574.27,101.88,574.27" transform="translate(979.269 134.03)"/><path class="i" d="M181.36,674.27l53.39,4.544S206.351,727.66,181.36,674.27Z" transform="translate(880.478 147.626)"/><path class="i" d="M187.009,648.27l-42.28,33.863S199.5,703.932,187.009,648.27Z" transform="translate(967.977 144.091)"/><path class="i" d="M192,633.27l48.119,6.429S197.68,674.164,192,633.27Z" transform="translate(863.022 142.052)"/><path class="i" d="M195.388,618.27l-31.739,22.276S202.2,656.892,195.388,618.27Z" transform="translate(939.151 140.012)"/><path class="i" d="M250.323,601.476s-39.406-10.44-45.086-8.168-2.272,27.263,13.631,28.4S250.323,601.476,250.323,601.476Z" transform="translate(840.698 136.575)"/><path class="i" d="M197.093,574.27S172.1,598.125,170.966,603.8s20.447,19.311,31.807,0S197.093,574.27,197.093,574.27Z" transform="translate(920.407 134.03)"/><circle class="n" cx="11.36" cy="11.36" r="11.36" transform="translate(1059.566 699.212)"/><circle class="n" cx="11.36" cy="11.36" r="11.36" transform="translate(1080.013 693.532)"/><path class="i" d="M160.226,822.191V612.038S57.99,585.911,38.679,712,160.226,822.191,160.226,822.191Z" transform="translate(1119.148 138.86)"/><path class="k" d="M64.36,676.116s21.5-19.311,43.166-14.767c0,0,13.631-30.671,24.991-34.079" transform="translate(1115.617 141.236)"/><path class="k" d="M36.85,711.359s14.767-21.969,53.39-22.912c0,0,22.719-41.837,38.066-44.677" transform="translate(1151.079 143.479)"/><path class="k" d="M36.86,755.758S68.8,712.41,107.926,710.229c0,0,11.859-16.006,20.379-17.039" transform="translate(1151.069 150.198)"/><path class="k" d="M40.789,812.121s14.256-48.505,57.991-63.08L36.87,649.27" transform="translate(1180.583 144.227)"/><path class="i" d="M264.865,870.036s-37.487-61.342,55.662-152.218S408,609.9,400.044,596.27c0,0,74.973,9.088,59.07,121.547s-84.061,152.218-84.061,152.218Z" transform="translate(567.509 137.021)"/><path class="o" d="M295.833,870.036s27.831-80.653,69.861-129.5,34.079-129.5,12.5-144.266" transform="translate(589.363 137.021)"/><path class="p" d="M781.455,450.69S718.432,574.407,769.788,642.1s-4.668,252.1-4.668,252.1" transform="translate(-321.777 117.228)"/><path class="m" d="M744.07,421.946c0,23.855,17.505,43.166,17.505,43.166s17.5-19.311,17.5-43.166-17.5-43.166-17.5-43.166S744.07,398.1,744.07,421.946Z" transform="translate(-303.067 107.452)"/><path class="q" d="M769.221,450.69S832.244,574.407,780.887,642.1s4.669,252.1,4.669,252.1" transform="translate(-342.224 117.228)"/><path class="n" d="M805.79,421.946c0,23.855-17.5,43.166-17.5,43.166S770.78,445.8,770.78,421.946s17.505-43.166,17.505-43.166S805.79,398.1,805.79,421.946Z" transform="translate(-360.119 107.452)"/><path class="p" d="M832.843,450.69S769.82,574.407,821.165,642.1,816.5,894.2,816.5,894.2" transform="translate(-431.52 117.228)"/><path class="m" d="M795.44,421.946c0,23.855,17.505,43.166,17.505,43.166S830.45,445.8,830.45,421.946s-17.505-43.166-17.505-43.166S795.44,398.1,795.44,421.946Z" transform="translate(-412.791 107.452)"/><path class="m" d="M797.483,509.166c16.54,17.187,42.553,18.982,42.553,18.982s-.784-26.127-17.324-43.257S780.16,466,780.16,466,780.944,492.025,797.483,509.166Z" transform="translate(-405.02 119.31)"/><path class="m" d="M798.933,584.347c16.54,17.187,42.553,18.982,42.553,18.982s-.784-26.127-17.324-43.257S781.61,541.09,781.61,541.09,782.4,567.115,798.933,584.347Z" transform="translate(-408.117 129.519)"/><path class="m" d="M718.656,623.038c-15.631,18.005-15.085,44.087-15.085,44.087S729.47,664,745.1,646s15.086-44.087,15.086-44.087S734.286,605.034,718.656,623.038Z" transform="translate(-238.167 137.788)"/><path class="m" d="M739.02,461.453c-19.879,13.177-26.32,38.452-26.32,38.452s25.786,3.908,45.665-9.258,26.32-38.452,26.32-38.452S758.9,448.287,739.02,461.453Z" transform="translate(-273.038 117.359)"/><path class="q" d="M820.591,450.69S883.614,574.407,832.257,642.1s4.669,252.1,4.669,252.1" transform="translate(-451.949 117.228)"/><path class="n" d="M857.16,421.946c0,23.855-17.505,43.166-17.505,43.166S822.15,445.8,822.15,421.946s17.505-43.166,17.505-43.166S857.16,398.1,857.16,421.946Z" transform="translate(-469.843 107.452)"/><path class="n" d="M853.65,507.87c16.744,17.039,17.846,43.041,17.846,43.041s-26.036-1.488-42.78-18.471S810.87,489.4,810.87,489.4,836.906,490.876,853.65,507.87Z" transform="translate(-471.365 122.491)"/><path class="i" d="M997.65,199.871c16.744,17.039,17.846,43.041,17.846,43.041s-26.036-1.488-42.78-18.471S954.87,181.4,954.87,181.4,980.906,182.877,997.65,199.871Z" transform="translate(-778.943 80.616)"/><path class="m" d="M120.65,427.871c16.744,17.039,17.846,43.041,17.846,43.041s-26.036-1.488-42.78-18.471S77.87,409.4,77.87,409.4,103.906,410.877,120.65,427.871Z" transform="translate(1094.292 111.615)"/><path class="i" d="M941.65,476.87c16.744,17.039,17.846,43.041,17.846,43.041s-26.036-1.488-42.78-18.471S898.87,458.4,898.87,458.4,924.906,459.877,941.65,476.87Z" transform="translate(-659.329 118.277)"/><path class="i" d="M184.7,458.711c22.06-9.088,46.574-.227,46.574-.227s-11.223,23.548-33.284,32.613-46.574.227-46.574.227S162.643,467.775,184.7,458.711Z" transform="translate(917.96 117.761)"/><path class="n" d="M411.62,431.488C424.365,411.336,449.5,404.35,449.5,404.35s4.464,25.7-8.293,45.859-37.884,27.138-37.884,27.138S398.874,451.663,411.62,431.488Z" transform="translate(413.677 110.928)"/><path class="n" d="M882.55,611.9c16.744,17.039,17.846,43.042,17.846,43.042s-26.036-1.488-42.78-18.471S839.77,593.43,839.77,593.43,865.806,594.907,882.55,611.9Z" transform="translate(-533.094 136.635)"/><path class="q" d="M904.183,594.131S866.242,534.334,813,533.05" transform="translate(-506.472 128.426)"/><path class="p" d="M706.73,562.31s37.941-59.8,91.184-61.081" transform="translate(-279.484 124.1)"/><path class="q" d="M873.813,637.48s-37.941-59.8-91.183-61.08" transform="translate(-441.603 134.32)"/><circle class="n" cx="9.849" cy="9.849" r="9.849" transform="translate(298.451 651.161)"/><circle class="m" cx="9.849" cy="9.849" r="9.849" transform="translate(507.717 615.878)"/><path class="p" d="M726.92,654.82s37.941-59.8,91.183-61.08" transform="translate(-322.608 136.677)"/><circle class="m" cx="9.849" cy="9.849" r="9.849" transform="translate(484.737 720.92)"/><circle class="n" cx="9.849" cy="9.849" r="9.849" transform="translate(330.462 701.223)"/><path class="i" d="M618.392,624.183s37.487-42.031,51.118,10.224,21.583,59.07,48.846,45.438,55.662,51.118-11.36,97.692-29.535,92.581-29.535,92.581H437.775s-31.807-92.581,37.486-124.387,67.021-55.662,64.75-87.469S618.392,624.183,618.392,624.183Z" transform="translate(83.915 138.643)"/><path class="o" d="M630.25,608.2S474.623,813.32,528.013,870.118" transform="translate(103.864 138.643)"/><path class="o" d="M625.452,679.109s-36.828,31.341-97.033,15.438S483.06,637.84,483.06,637.84" transform="translate(148.897 142.673)"/><path class="o" d="M436.31,772.023s80.119-38.861,120.411-24.367C661.593,785.393,739.61,683.77,739.61,683.77" transform="translate(86.005 148.917)"/><path class="i" d="M351.749,880.369s-48.846-36.351,12.5-163.578c0,0,81.789-101.1,0-196.521,0,0,178.346,4.544,174.938,170.394s-89.173,189.7-89.173,189.7Z" transform="translate(403.38 126.688)"/><path class="o" d="M436.287,880.369s12.3-87.469,45.245-140.859a114.51,114.51,0,0,0,13.836-34.885c11.008-48.426-4.691-99.067-40.258-133.725l-51.97-50.63" transform="translate(364.462 126.688)"/><path class="f" d="M351.749,880.369s-48.846-36.351,12.5-163.578c0,0,81.789-101.1,0-196.521,0,0,178.346,4.544,174.938,170.394s-89.173,189.7-89.173,189.7Z" transform="translate(400.68 126.688)"/><path class="i" d="M1015.955,370.77s26.127,212.424,0,343.059S1148,900.694,1148,900.694H915.991S884.184,477.55,1015.955,370.77Z" transform="translate(-863.452 106.363)"/><path class="o" d="M1086.15,370.77s-66.056,182.969-56.309,276.038S1053.207,902.4,1053.207,902.4" transform="translate(-933.647 106.363)"/><path class="i" d="M939.827,867.034S1106.972,829.66,894.3,611c0,0-91.672,86.889-58.047,194.9,13.518,43.427,57.025,70.236,101.1,61.648Z" transform="translate(-622.542 139.024)"/><path class="r" d="M940.291,867.034c3.669-.818,163.578-41.065-45.529-256.034,0,0-91.672,86.889-58.047,194.9,13.518,43.427,57.025,70.236,101.1,61.648Z" transform="translate(-623.005 139.024)"/><path class="s" d="M941.822,868.271S853.536,735.262,898.486,611" transform="translate(-626.73 139.024)"/><path class="i" d="M330.828,867.034S497.972,829.66,285.3,611c0,0-91.672,86.889-58.048,194.9,13.518,43.427,57.025,70.236,101.1,61.648Z" transform="translate(678.256 139.024)"/><path class="r" d="M331.291,867.034c3.669-.818,163.578-41.065-45.529-256.034,0,0-91.672,86.889-58.047,194.9,13.518,43.427,57.025,70.236,101.1,61.648Z" transform="translate(677.793 139.024)"/><path class="k" d="M332.823,868.271S244.536,735.262,289.486,611" transform="translate(674.069 139.024)"/><path class="i" d="M983.767,333.77s85.322,85.322,37.157,211.924S1103.5,882.858,1103.5,882.858s-1.4-.2-4-.659C924.266,851.267,837.183,650.838,934.637,501.948,970.852,446.593,1000.591,381.651,983.767,333.77Z" transform="translate(-797.855 101.332)"/><path class="f" d="M983.767,333.77s85.322,85.322,37.157,211.924S1103.5,882.858,1103.5,882.858s-1.4-.2-4-.659C924.266,851.267,837.183,650.838,934.637,501.948,970.852,446.593,1000.591,381.651,983.767,333.77Z" transform="translate(-797.855 101.332)"/><path class="s" d="M913.805,333.77s48.165,104.588,0,189.909-8.259,324.77,119.73,359.179" transform="translate(-727.893 101.332)"/><path class="i" d="M874.9,637.688s97.363-15.506,106.235,71.747,187.217,99.351,187.217,99.351-1.136.8-3.339,2.272c-147.254,96.67-288.022,61.58-266.8-66.783C906.093,696.508,905.446,648.581,874.9,637.688Z" transform="translate(-840.956 142.507)"/><path class="t" d="M874.9,637.688s97.363-15.506,106.235,71.747,187.217,99.351,187.217,99.351-1.136.8-3.339,2.272c-147.254,96.67-288.022,61.58-266.8-66.783C906.093,696.508,905.446,648.581,874.9,637.688Z" transform="translate(-840.956 142.507)"/><path class="k" d="M874.89,637.56s75.576,16.585,69.373,85.3,112.221,151.083,224.091,85.8" transform="translate(-840.947 142.635)"/><path class="l" d="M1087.963,892.862s41.428-140.665-7.77-244.231c-20.652-43.451-27.513-92.229-17.971-139.382a373.677,373.677,0,0,1,19.732-65.42" transform="translate(-984.862 116.296)"/><path class="i" d="M1049.675,389.989c0,17.244,31.216,67.238,31.216,67.238s31.216-49.982,31.216-67.238a31.239,31.239,0,0,0-62.478,0Z" transform="translate(-983.198 104.728)"/><path class="i" d="M1099.789,476.077c9.372,14.472,62.739,39.474,62.739,39.474s-.965-58.934-10.337-73.405a31.215,31.215,0,1,0-52.4,33.932Z" transform="translate(-1084.895 114.129)"/><path class="i" d="M1099.945,621.073c15.392,7.758,74.087,2.4,74.087,2.4s-30.58-50.38-45.971-58.139a31.216,31.216,0,1,0-28.116,55.742Z" transform="translate(-1082.78 132.359)"/><path class="i" d="M1070.737,729.06c13.858,10.224,72.611,14.881,72.611,14.881s-21.583-54.821-35.487-65.079a31.217,31.217,0,0,0-37.123,50.2Z" transform="translate(-1024.037 147.418)"/><path class="i" d="M1098.72,514.416c-12.371,12.007-69.975,24.457-69.975,24.457s14.108-57.23,26.479-69.237a31.215,31.215,0,1,1,43.5,44.781Z" transform="translate(-955.554 118.604)"/><path class="i" d="M1067.231,642.176c-15.393,7.759-74.087,2.4-74.087,2.4s30.58-50.38,46.029-58.172a31.215,31.215,0,1,1,28.106,55.745Z" transform="translate(-891.373 135.224)"/><path class="i" d="M1058.759,769.221C1044.9,779.444,986.148,784.1,986.148,784.1s21.583-54.821,35.488-65.079a31.214,31.214,0,1,1,37.125,50.19Z" transform="translate(-870.393 152.878)"/><path class="m" d="M1049.675,389.989c0,17.244,31.216,67.238,31.216,67.238s31.216-49.982,31.216-67.238a31.239,31.239,0,0,0-62.478,0Z" transform="translate(-983.198 104.728)"/><path class="m" d="M1099.789,476.077c9.372,14.472,62.739,39.474,62.739,39.474s-.965-58.934-10.337-73.405a31.215,31.215,0,1,0-52.4,33.932Z" transform="translate(-1084.895 114.129)"/><path class="m" d="M1099.945,621.073c15.392,7.758,74.087,2.4,74.087,2.4s-30.58-50.38-45.971-58.139a31.216,31.216,0,1,0-28.116,55.742Z" transform="translate(-1082.78 132.359)"/><path class="m" d="M1070.737,729.06c13.858,10.224,72.611,14.881,72.611,14.881s-21.583-54.821-35.487-65.079a31.217,31.217,0,0,0-37.123,50.2Z" transform="translate(-1024.037 147.418)"/><path class="m" d="M1098.72,514.416c-12.371,12.007-69.975,24.457-69.975,24.457s14.108-57.23,26.479-69.237a31.215,31.215,0,1,1,43.5,44.781Z" transform="translate(-955.554 118.604)"/><path class="m" d="M1067.231,642.176c-15.393,7.759-74.087,2.4-74.087,2.4s30.58-50.38,46.029-58.172a31.215,31.215,0,1,1,28.106,55.745Z" transform="translate(-891.373 135.224)"/><path class="m" d="M1058.759,769.221C1044.9,779.444,986.148,784.1,986.148,784.1s21.583-54.821,35.488-65.079a31.214,31.214,0,1,1,37.125,50.19Z" transform="translate(-870.393 152.878)"/><path class="i" d="M962.965,826.377c-6.5-6.043-12.6-13.166-14.472-21.844s1.829-19.084,10.11-22.253c9.292-3.556,19.221,2.885,26.74,9.383s16.153,13.927,26,12.5A39.588,39.588,0,0,1,999.1,767.114a15.47,15.47,0,0,1,3.408-7.519c5.157-5.51,14.506-3.147,20.674,1.192,19.641,13.813,25.116,40.486,25.219,64.488,1.976-8.656.307-17.687.364-26.57s2.465-18.709,9.984-23.446c4.453-2.828,9.94-3.408,15.211-3.578,8.826-.33,18.652.557,24.684,7.02,7.486,8.02,5.543,21.481-.966,30.307s-16.426,14.359-25.548,20.447c-6.952,4.646-13.983,10.076-18.255,17.414a17.234,17.234,0,0,0-1.352,3.113H997.191A154.194,154.194,0,0,1,962.965,826.377Z" transform="translate(-859.126 158.79)"/><path class="i" d="M187.387,830.073c-4.93-3.737-9.565-8.156-10.985-13.529a11.439,11.439,0,0,1,7.679-13.779c7.054-2.2,14.586,1.783,20.288,5.816s12.257,8.622,19.732,7.77c-7.747-5.589-11.428-14.676-9.292-22.935a8.882,8.882,0,0,1,2.579-4.657c3.908-3.408,11.007-1.943,15.688.738,14.9,8.554,19.061,25.059,19.141,39.929,1.5-5.361.238-10.95.273-16.449s1.886-11.6,7.565-14.551c3.408-1.749,7.543-2.09,11.541-2.215,6.7-.2,14.154.352,18.732,4.339,5.68,4.964,4.214,13.3-.738,18.766s-12.5,8.895-19.391,12.666c-5.271,2.874-10.61,6.237-13.859,10.78a9.78,9.78,0,0,0-1.022,1.931h-42.03A120.714,120.714,0,0,1,187.387,830.073Z" transform="translate(827.286 162.922)"/><path class="i" d="M806.387,830.073c-4.93-3.737-9.564-8.156-10.984-13.529a11.439,11.439,0,0,1,7.679-13.779c7.054-2.2,14.585,1.783,20.288,5.816s12.257,8.622,19.731,7.77c-7.747-5.589-11.427-14.676-9.292-22.935a8.884,8.884,0,0,1,2.579-4.657c3.908-3.408,11.008-1.943,15.688.738,14.9,8.554,19.062,25.059,19.141,39.929,1.5-5.361.239-10.95.273-16.449s1.886-11.6,7.566-14.551c3.408-1.749,7.543-2.09,11.541-2.215,6.7-.2,14.154.352,18.732,4.339,5.68,4.964,4.214,13.3-.738,18.766s-12.5,8.895-19.391,12.666c-5.271,2.874-10.61,6.237-13.859,10.78a9.769,9.769,0,0,0-1.022,1.931H832.287A120.721,120.721,0,0,1,806.387,830.073Z" transform="translate(-494.873 162.922)"/><path class="i" d="M872.479,510.953c8.8,7.827,17.6,20.038,13.347,37.078-8.395,33.534-50.7,35.442-62.739,68.362-3.6,9.86-3.249,20.016-1.4,28.479,3.624,16.551,12.314,28.4,18.846,42.292S851.5,719.072,846,738.69c-5.294,18.879-18.732,34.783-32.3,44.359s-27.615,14.154-41.5,20.254A268.576,268.576,0,0,0,724,831.123c-6.668,4.782-13.37,10.03-19.164,17.187-6.6,8.156-11.609,18.3-16.494,28.24-2.419,4.93-1.772,14.767-7.27,14.767-140.416-.477-42.03-.545-110.96-.216-12.257.057-29.8.136-54.912.216-26.729.091-21.913-48.142-18.391-79.517,5-44.439,42.348-81.062,60.955-124.342,13.336-31.012,16.472-64.477,27.627-96.273,16.074-45.813,48.006-84.595,81.4-107.712s68.158-32.182,101.237-35.215c13.995-1.295,28.092-1.522,39.838,4.408,12.5,6.3,15.381,22.174,24.991,31.954C843.944,496.038,860.518,500.321,872.479,510.953Z" transform="translate(-126.881 116.796)"/><path class="j" d="M872.479,510.953c8.8,7.827,17.6,20.038,13.347,37.078-8.395,33.534-50.7,35.442-62.739,68.362-3.6,9.86-3.249,20.016-1.4,28.479,3.624,16.551,12.314,28.4,18.846,42.292S851.5,719.072,846,738.69c-5.294,18.879-18.732,34.783-32.3,44.359s-27.615,14.154-41.5,20.254A268.576,268.576,0,0,0,724,831.123c-6.668,4.782-13.37,10.03-19.164,17.187-6.6,8.156-11.609,18.3-16.494,28.24-2.419,4.93-1.772,14.767-7.27,14.767-140.416-.477-42.03-.545-110.96-.216-12.257.057-29.8.136-54.912.216-26.729.091-21.913-48.142-18.391-79.517,5-44.439,42.348-81.062,60.955-124.342,13.336-31.012,16.472-64.477,27.627-96.273,16.074-45.813,48.006-84.595,81.4-107.712s68.158-32.182,101.237-35.215c13.995-1.295,28.092-1.522,39.838,4.408,12.5,6.3,15.381,22.174,24.991,31.954C843.944,496.038,860.518,500.321,872.479,510.953Z" transform="translate(-126.881 116.796)"/><path class="o" d="M802.443,459.28s-149.56,216.65-247,430.335" transform="translate(-112.154 118.396)"/><path class="o" d="M691.689,537.75S558.2,539.352,495.68,652.482" transform="translate(66.484 129.065)"/><path class="o" d="M732.656,715.852s-165.509-66.658-199.576-1.84" transform="translate(-16.968 149.176)"/><path class="o" d="M670.287,478.48s34.079,69.532,12.359,198.611" transform="translate(-130.059 121.007)"/><path class="o" d="M735.18,770.423s24.991,45.052,115.663-9.883" transform="translate(-364.732 159.355)"/><path class="l" d="M761.84,814.42" transform="translate(-306.013 166.68)"/><path class="i" d="M958.725,657.08s-25.116,32.852,11.61,82.437,67.021,91.456,54.741,122.365c0,0-55.389-92.1-100.475-93.387S909.14,712.469,958.725,657.08Z" transform="translate(-731.657 145.289)"/><path class="f" d="M960.025,657.08a40.668,40.668,0,0,0-5.135,10.3c-43.985,51.686-67.419,99.964-25.139,101.1,39.384,1.136,86.628,71.565,97.942,89.343a38.126,38.126,0,0,1-1.341,4.044s-55.389-92.1-100.475-93.387S910.441,712.469,960.025,657.08Z" transform="translate(-732.958 145.289)"/><path class="n" d="M999.22,694.816c0,11.564,1.295,20.936,2.9,20.936s2.9-9.371,2.9-20.936-1.624-6.123-3.215-6.123S999.22,683.252,999.22,694.816Z" transform="translate(-818.84 149.413)"/><path class="n" d="M1007.181,707.028c10.155,5.532,19,8.883,19.765,7.474s-6.815-7.032-17.039-12.564-6.145-1.511-6.918-.1S997.037,701.5,1007.181,707.028Z" transform="translate(-842.83 151.002)"/><path class="i" d="M865.915,657.08s25.116,32.852-11.6,82.437-67.021,91.456-54.742,122.365c0,0,55.389-92.1,100.476-93.387S915.5,712.469,865.915,657.08Z" transform="translate(-506.167 145.289)"/><path class="f" d="M864.461,657.08a40.656,40.656,0,0,1,5.135,10.3c43.984,51.686,67.419,99.964,25.139,101.1-39.384,1.136-86.628,71.565-97.943,89.343a38.124,38.124,0,0,0,1.341,4.044s55.389-92.1,100.475-93.387S914.045,712.469,864.461,657.08Z" transform="translate(-504.713 145.289)"/><path class="n" d="M811.113,694.816c0,11.564-1.3,20.936-2.9,20.936s-2.9-9.371-2.9-20.936,1.625-6.123,3.215-6.123S811.113,683.252,811.113,694.816Z" transform="translate(-404.678 149.413)"/><path class="n" d="M805.572,707.028c-10.155,5.532-19,8.883-19.766,7.474s6.816-7.032,17.04-12.564,6.145-1.511,6.918-.1S815.717,701.5,805.572,707.028Z" transform="translate(-383.109 151.002)"/><path class="m" d="M237.561,730s-15.165,19.822,7,49.766S284.987,834.974,277.6,853.6c0,0-33.431-55.594-60.649-56.366S207.628,763.465,237.561,730Z" transform="translate(810.77 155.203)"/><path class="f" d="M238.445,730a24.559,24.559,0,0,0-3.124,6.248c-26.547,31.193-40.7,60.308-15.176,61.035,23.776.682,52.254,43.166,59.07,53.924a23.048,23.048,0,0,1-.807,2.443s-33.431-55.594-60.649-56.366S208.512,763.465,238.445,730Z" transform="translate(809.886 155.203)"/><path class="n" d="M261.98,752.8c0,6.975.784,12.632,1.749,12.632s1.75-5.68,1.75-12.632-.977-3.692-1.943-3.692S261.98,745.829,261.98,752.8Z" transform="translate(758.168 157.696)"/><path class="n" d="M266.767,760.169c6.123,3.34,11.473,5.362,11.928,4.544s-4.135-4.248-10.224-7.588-3.715-.909-4.169-.057S260.6,756.829,266.767,760.169Z" transform="translate(743.714 158.658)"/><path class="m" d="M181.5,730s15.165,19.822-7,49.766-40.429,55.208-33.045,73.837c0,0,33.431-55.594,60.649-56.366S211.436,763.465,181.5,730Z" transform="translate(946.912 155.203)"/><path class="f" d="M180.514,730a24.559,24.559,0,0,1,3.124,6.248c26.547,31.193,40.7,60.308,15.176,61.035-23.776.682-52.254,43.166-59.07,53.924a23.058,23.058,0,0,0,.806,2.443s33.431-55.594,60.649-56.366S210.447,763.465,180.514,730Z" transform="translate(947.902 155.203)"/><path class="n" d="M148.439,752.8c0,6.975-.784,12.632-1.749,12.632s-1.749-5.68-1.749-12.632.977-3.692,1.943-3.692S148.439,745.829,148.439,752.8Z" transform="translate(1008.161 157.696)"/><path class="n" d="M145.1,760.169c-6.123,3.34-11.473,5.362-11.928,4.544s4.135-4.248,10.224-7.588,3.714-.909,4.169-.057S151.261,756.829,145.1,760.169Z" transform="translate(1021.174 158.658)"/></g></svg>